<?xml version="1.0" standalone="no"?>
<!DOCTYPE svg PUBLIC "-//W3C//DTD SVG 20010904//EN"
 "http://www.w3.org/TR/2001/REC-SVG-20010904/DTD/svg10.dtd">
<svg version="1.0" xmlns="http://www.w3.org/2000/svg"
 width="203.000000pt" height="248.000000pt" viewBox="0 0 203.000000 248.000000"
 preserveAspectRatio="xMidYMid meet">

<g transform="translate(0.000000,248.000000) scale(0.100000,-0.100000)"
fill="#000000" stroke="none">
<path d="M761 2364 c-237 -32 -483 -116 -643 -220 l-69 -44 3 -528 c3 -522 4
-528 27 -597 43 -128 120 -256 226 -373 117 -130 363 -310 578 -422 98 -52
124 -61 150 -56 54 11 288 131 397 204 244 163 404 339 486 534 62 145 64 173
64 732 l0 505 -32 24 c-96 72 -296 157 -475 202 -214 53 -492 69 -712 39z
m454 -154 c202 -23 371 -71 518 -148 l87 -46 0 -455 c0 -507 -3 -539 -64 -664
-71 -149 -217 -303 -403 -428 -91 -60 -231 -139 -248 -139 -3 0 -5 61 -5 135
l0 135 -80 0 -80 0 0 -130 c0 -91 -3 -130 -11 -130 -19 0 -177 98 -276 171
-233 172 -380 360 -428 544 -12 49 -15 136 -15 507 l0 448 39 26 c61 40 212
102 314 128 80 21 160 35 282 49 67 8 286 6 370 -3z"/>
<path d="M548 1966 c-71 -19 -153 -79 -203 -147 -25 -34 -45 -65 -45 -69 0 -4
33 14 73 41 80 53 142 79 189 79 67 0 140 -51 200 -140 40 -59 55 -70 95 -70
80 0 97 78 35 157 -105 132 -223 183 -344 149z"/>
<path d="M1370 1974 c-78 -15 -152 -64 -220 -145 -39 -46 -50 -68 -50 -95 0
-47 29 -74 80 -74 37 0 43 4 73 47 77 113 178 193 242 193 37 0 120 -47 183
-105 54 -50 61 -53 51 -28 -32 85 -91 156 -155 184 -41 19 -157 32 -204 23z"/>
<path d="M468 1635 c-20 -7 -51 -24 -67 -36 -37 -27 -31 -38 46 -75 97 -48
221 -35 307 31 16 12 17 17 5 31 -8 10 -36 28 -64 40 -58 28 -165 32 -227 9z"/>
<path d="M1335 1626 c-27 -12 -56 -30 -63 -39 -11 -13 -8 -19 21 -41 50 -39
144 -59 211 -47 59 11 125 40 145 65 10 12 6 19 -27 41 -51 34 -94 45 -172 45
-47 0 -79 -7 -115 -24z"/>
<path d="M397 1129 c11 -19 64 -107 118 -196 l96 -163 163 0 162 0 39 40 39
40 41 -40 41 -41 164 3 164 3 98 165 c124 207 135 228 117 214 -8 -6 -78 -59
-156 -117 -129 -97 -146 -107 -185 -107 -41 0 -48 5 -123 80 l-80 80 -80 0
-80 0 -80 -80 c-75 -75 -82 -80 -123 -80 -39 0 -55 9 -184 108 -178 134 -176
133 -151 91z"/>
</g>
</svg>
